inDegrees=yes
name=ik_S53_A10_T02
DataType=double
version=3
OpenSimVersion=4.3-2021-08-27-4bc7ad9
endheader
time	pelvis_tilt	pelvis_list	pelvis_rotation	pelvis_tx	pelvis_ty	pelvis_tz	hip_flexion_r	hip_adduction_r	hip_rotation_r	knee_angle_r	knee_angle_r_beta	ankle_angle_r	subtalar_angle_r	mtp_angle_r	hip_flexion_l	hip_adduction_l	hip_rotation_l	knee_angle_l	knee_angle_l_beta	ankle_angle_l	subtalar_angle_l	mtp_angle_l	lumbar_extension	lumbar_bending	lumbar_rotation	arm_flex_r	arm_add_r	arm_rot_r	elbow_flex_r	pro_sup_r	wrist_flex_r	wrist_dev_r	arm_flex_l	arm_add_l	arm_rot_l	elbow_flex_l	pro_sup_l	wrist_flex_l	wrist_dev_l
15.71666666666703	0.2558699121297531	-0.196764277863364	50.94841511323074	0	0.9399999999999999	0	44.99338468969444	-10.00000110104556	-10.00007777814573	55.00043313009317	0.9599386481430966	0	0	0	44.99338468969444	-10.00000110104556	-10.00007777814573	55.00043313009317	0.9599386481430966	0	0	0	-0.1127934047683315	-0.02171439773505964	1.057795912695409	34.92806803393673	5.466063843356505	-4.521867957246332	19.80575485031713	106.448485828488	0	0	27.87626278385251	-1.833863165897155	-1.387680805768222	26.49113897177863	86.35821752654404	0	0
15.73333333333369	0.2625516454127203	-0.2064727754172488	50.9991530116455	0	0.9399999999999999	0	44.99341268291342	-10.00000108957674	-10.00007719017004	55.00043205415074	0.9599386293643586	0	0	0	44.99341268291342	-10.00000108957674	-10.00007719017004	55.00043205415074	0.9599386293643586	0	0	0	-0.1155372054695378	-0.03253717046387176	1.043320032800792	33.54941855174081	5.329602797663463	-3.714114845881502	19.1516306065855	106.7794957604479	0	0	26.61896050451443	-1.387402366007021	-1.242675763072358	25.46514053225993	86.57437640309557	0	0
15.75000000000036	0.235340508523518	-0.2992452333538449	51.04790749424045	0	0.9399999999999999	0	44.99341968944876	-10.00000108602746	-10.00007702301943	55.00043181437671	0.9599386251795123	0	0	0	44.99341968944876	-10.00000108602746	-10.00007702301943	55.00043181437671	0.9599386251795123	0	0	0	-0.2064030248835314	-0.06346937678929865	1.081867550847196	32.46160324292898	5.234642971993584	-2.881862568102176	18.41594947601661	106.658006306127	0	0	26.80620885639599	-1.131622559939635	-1.50226585610538	23.24671214420221	87.24439613419312	0	0
15.76666666666703	0.1983210277532179	-0.3803461637725453	51.04916297579103	0	0.9399999999999999	0	44.99342164285974	-10.00000108489277	-10.00007697189021	55.00043175631195	0.9599386241660911	0	0	0	44.99342164285974	-10.00000108489277	-10.00007697189021	55.00043175631195	0.9599386241660911	0	0	0	-0.2922661240306719	-0.08641554629374722	1.150276616930381	32.65911046606161	5.243421764681356	-2.953405922211982	18.39209092579055	106.6351523823982	0	0	26.01286030727272	-0.8313674680450022	-1.464750490122465	23.06620578502594	87.62331633411968	0	0
15.7833333333337	0.2111672428040626	-0.3569158772965368	51.06614119701721	0	0.9399999999999999	0	44.99339619984237	-10.00000109350806	-10.00007745352316	55.00043280522401	0.95993864247306	0	0	0	44.99339619984237	-10.00000109350806	-10.00007745352316	55.00043280522401	0.95993864247306	0	0	0	-0.2658846911831224	-0.08545121038273829	1.168956537872707	32.59705575199451	5.280159337784282	-3.124356175926901	16.30409883485893	107.4227439184933	0	0	25.06382016281071	-0.5300430448684523	-1.711768870301206	21.77448583234148	88.53702006578216	0	0
15.80000000000036	0.2101635219109146	-0.3597194198568315	51.09740116638103	0	0.9399999999999999	0	44.99339944582498	-10.00000109161162	-10.000077368239	55.00043270902839	0.9599386407941297	0	0	0	44.99339944582498	-10.00000109161162	-10.000077368239	55.00043270902839	0.9599386407941297	0	0	0	-0.268941128590734	-0.08631447251377006	1.127525200162298	31.42771190306189	5.062537024382339	-2.10244164184465	17.60901484613517	106.5012242207744	0	0	24.18745118240453	-0.334756310285699	-1.92248673187594	20.52991343995753	89.51595648484519	0	0
15.81666666666703	0.2232118215983612	-0.3541612198510488	51.16598150626796	0	0.9399999999999999	0	44.99343337861517	-10.00000107795841	-10.00007666235233	55.00043139776739	0.9599386179083078	0	0	0	44.99343337861517	-10.00000107795841	-10.00007666235233	55.00043139776739	0.9599386179083078	0	0	0	-0.2582970646879628	-0.08772884133262239	1.061296299059593	29.21002027022115	4.724529664160325	-0.7255025315941193	17.88049069623719	106.106273608294	0	0	23.37890303392625	0.008842464473350712	-2.616247975607346	18.34007052188654	91.36184061913777	0	0
